<?xml version="1.0" encoding="utf-8"?>
<!-- Generator: Adobe Illustrator 27.9.0, SVG Export Plug-In . SVG Version: 6.00 Build 0)  -->
<svg version="1.1" id="Layer_1" xmlns="http://www.w3.org/2000/svg" xmlns:xlink="http://www.w3.org/1999/xlink" x="0px" y="0px"
	 viewBox="0 0 50 50" style="enable-background:new 0 0 50 50;" xml:space="preserve">
<style type="text/css">
	.st0{fill:#33669A;}
	.st1{fill:#FFFFFF;}
</style>
<path class="st0" d="M25.28,1.01C11.03,1.01,2.23,11.74,2.23,25.3c0,12.87,7.91,23.67,22.29,23.67c14.31,0,23.26-9.5,23.26-24.43
	C47.77,12.09,40.21,1.01,25.28,1.01z"/>
<g id="_21_00000061470624291495993030000016972377165527696804_">
	<path class="st1" d="M10,25.5c0.01-4.34,1.53-8.54,4.3-11.88c0.66-0.79,0.55-1.97-0.24-2.63c-0.79-0.66-1.97-0.55-2.63,0.24
		c-6.84,8.28-6.84,20.26,0,28.54c0.36,0.43,0.88,0.67,1.44,0.67c0.44,0,0.86-0.15,1.2-0.43c0.79-0.66,0.9-1.84,0.25-2.63
		c0,0,0,0,0,0C11.53,34.04,10.01,29.84,10,25.5z"/>
	<circle class="st1" cx="24.94" cy="25.5" r="3.74"/>
	<path class="st1" d="M34.39,18.93c-0.42-0.94-1.53-1.36-2.47-0.93c-0.94,0.42-1.36,1.53-0.93,2.47c0.05,0.12,0.12,0.23,0.19,0.33
		c1.67,2.89,1.67,6.45,0,9.34c-0.54,0.88-0.26,2.03,0.62,2.57c0.01,0,0.01,0.01,0.02,0.01c0.3,0.17,0.63,0.26,0.97,0.26
		c0.66,0,1.27-0.34,1.61-0.9c2.31-4.05,2.31-9.02,0-13.07V18.93z"/>
	<path class="st1" d="M18.07,18.29c-0.88-0.54-2.03-0.26-2.57,0.62c0,0.01-0.01,0.01-0.01,0.02c-2.31,4.05-2.31,9.02,0,13.07
		c0.32,0.59,0.94,0.96,1.61,0.97c0.34-0.01,0.67-0.1,0.97-0.26c0.89-0.53,1.17-1.68,0.64-2.56c0-0.01-0.01-0.01-0.01-0.02
		c-1.67-2.89-1.67-6.45,0-9.34C19.2,19.92,18.92,18.82,18.07,18.29L18.07,18.29z"/>
	<path class="st1" d="M38.48,11.23c-0.66-0.79-1.84-0.9-2.63-0.24c-0.79,0.66-0.9,1.84-0.24,2.63l0,0c5.69,6.9,5.69,16.86,0,23.76
		c-0.66,0.79-0.55,1.97,0.24,2.63c0,0,0,0,0,0c0.34,0.28,0.76,0.43,1.2,0.43c0.56,0,1.08-0.25,1.44-0.67
		C45.32,31.49,45.32,19.52,38.48,11.23L38.48,11.23z"/>
</g>
</svg>
