<?xml version="1.0" encoding="utf-8"?>
<!-- Generator: Adobe Illustrator 27.9.0, SVG Export Plug-In . SVG Version: 6.00 Build 0)  -->
<svg version="1.1" id="Layer_1" xmlns="http://www.w3.org/2000/svg" xmlns:xlink="http://www.w3.org/1999/xlink" x="0px" y="0px"
	 viewBox="0 0 314.14 59.86" style="enable-background:new 0 0 314.14 59.86;" xml:space="preserve">
<style type="text/css">
	.st0{fill:#33669A;}
	.st1{fill:#FFFFFF;}
</style>
<path class="st0" d="M301.11,57.04h-112.7c-5.78,0-10.47-4.69-10.47-10.47V13.64c0-5.78,4.69-10.47,10.47-10.47h112.7
	c5.78,0,10.47,4.69,10.47,10.47v32.93C311.58,52.35,306.89,57.04,301.11,57.04z"/>
<path d="M3.32,10.43c2.46-0.42,7.8-0.84,12.78-0.84c5.76,0,9.24,0.42,12.36,1.98c3.18,1.44,5.46,4.38,5.46,8.34
	c0,3.36-1.86,6.66-6.6,8.46v0.12c4.92,1.38,7.92,5.04,7.92,9.84c0,3.84-1.86,6.84-4.56,8.82c-3,2.28-8.04,3.66-16.68,3.66
	c-4.92,0-8.52-0.3-10.68-0.66V10.43z M14.06,25.43h2.16c4.62,0,6.84-1.62,6.84-4.2c0-2.34-1.8-3.84-5.46-3.84
	c-1.8,0-2.82,0.06-3.54,0.24V25.43z M14.06,42.77c0.78,0.12,1.74,0.12,3.12,0.12c3.6,0,6.66-1.44,6.66-5.04
	c0-3.42-3.12-4.74-7.2-4.74h-2.58V42.77z"/>
<path d="M36.18,10.43c3.06-0.48,7.68-0.84,13.08-0.84c6.18,0,10.62,0.84,13.68,3.12c2.58,2.04,3.96,4.92,3.96,8.82
	c0,5.04-3.78,8.58-6.9,9.78v0.18c2.64,1.2,4.14,3.78,5.16,7.26c1.2,4.14,2.52,10.02,3.3,11.58H57.42c-0.6-1.2-1.68-4.32-2.82-9.36
	c-1.08-4.8-2.58-5.82-5.94-5.82h-1.74v15.18H36.18V10.43z M46.92,27.35h2.82c4.08,0,6.42-1.98,6.42-4.98s-1.98-4.74-5.58-4.74
	c-2.04,0-3.12,0.06-3.66,0.24V27.35z"/>
<path d="M117.18,40.97l-2.28,9.36h-11.22l11.7-40.44h14.46l12.06,40.44h-11.7l-2.58-9.36H117.18z M126.12,32.99l-1.86-7.26
	c-0.6-2.28-1.38-5.64-2.04-7.98h-0.12c-0.6,2.34-1.2,5.7-1.74,7.98l-1.74,7.26H126.12z"/>
<path class="st1" d="M227.12,40.97l-2.28,9.36h-11.22l11.7-40.44h14.46l12.06,40.44h-11.7l-2.58-9.36H227.12z M236.06,32.99
	l-1.86-7.26c-0.6-2.28-1.38-5.64-2.04-7.98h-0.12c-0.6,2.34-1.2,5.7-1.74,7.98l-1.74,7.26H236.06z"/>
<path class="st0" d="M87.16,9.29c-12.42,0-20.1,9.36-20.1,21.18c0,11.22,6.9,20.64,19.44,20.64c12.48,0,20.28-8.28,20.28-21.3
	C106.78,18.95,100.18,9.29,87.16,9.29z"/>
<g id="_21_00000061470624291495993030000016972377165527696804_">
	<path class="st1" d="M73.84,30.64c0.01-3.78,1.33-7.45,3.75-10.36c0.58-0.69,0.48-1.72-0.21-2.3c-0.69-0.58-1.72-0.48-2.3,0.21
		c-5.96,7.22-5.96,17.66,0,24.89c0.31,0.37,0.77,0.59,1.25,0.59c0.38,0,0.75-0.13,1.04-0.37c0.69-0.57,0.79-1.6,0.21-2.29
		c0,0,0,0,0,0C75.17,38.09,73.85,34.43,73.84,30.64z"/>
	<circle class="st1" cx="86.87" cy="30.64" r="3.26"/>
	<path class="st1" d="M95.11,24.91c-0.37-0.82-1.34-1.18-2.15-0.81c-0.82,0.37-1.18,1.34-0.81,2.15c0.05,0.1,0.1,0.2,0.17,0.29
		c1.45,2.52,1.45,5.62,0,8.14c-0.47,0.77-0.23,1.77,0.54,2.24c0,0,0.01,0.01,0.01,0.01c0.26,0.15,0.55,0.22,0.85,0.23
		c0.57,0,1.1-0.29,1.4-0.78c2.02-3.53,2.02-7.87,0-11.4V24.91z"/>
	<path class="st1" d="M80.87,24.36c-0.77-0.47-1.77-0.23-2.24,0.54c0,0-0.01,0.01-0.01,0.01c-2.02,3.53-2.02,7.87,0,11.4
		c0.28,0.51,0.82,0.84,1.4,0.85c0.3,0,0.59-0.08,0.85-0.23c0.77-0.46,1.02-1.46,0.56-2.23c0,0-0.01-0.01-0.01-0.01
		c-1.45-2.52-1.45-5.62,0-8.14C81.86,25.78,81.61,24.82,80.87,24.36L80.87,24.36z"/>
	<path class="st1" d="M98.68,18.2c-0.58-0.69-1.6-0.79-2.3-0.21c-0.69,0.58-0.79,1.6-0.21,2.3l0,0c4.96,6.02,4.96,14.7,0,20.72
		c-0.58,0.69-0.48,1.72,0.21,2.29c0,0,0,0,0,0c0.29,0.24,0.66,0.38,1.04,0.37c0.48,0,0.94-0.21,1.25-0.59
		C104.64,35.86,104.64,25.42,98.68,18.2L98.68,18.2z"/>
</g>
<path d="M168.58,13.61c-4.02-2.76-8.88-4.02-16.68-4.02c-4.8,0-9.42,0.3-12.84,0.9v21.75l5.5,18.43c1.51,0.08,3.26,0.14,5.24,0.14
	c7.92,0,14.58-1.56,19.02-4.98c3.96-3.06,7.08-8.4,7.08-16.68C175.9,21.71,173.02,16.67,168.58,13.61z M152.14,42.41
	c-0.72,0-1.74,0-2.28-0.12V18.11c0.54-0.12,1.62-0.24,3.3-0.24c6.54,0,11.22,3.72,11.22,11.64
	C164.38,38.63,159.16,42.47,152.14,42.41z"/>
<path class="st1" d="M274.38,19.01h7.13v31.32h10.86V19.01h10.5V9.89h-26.31"/>
<path class="st1" d="M213.83,41.32c-1.64,0.4-3.73,0.66-5.63,0.66c-7.44,0-11.82-4.56-11.82-11.94c0-8.28,5.4-11.94,11.58-11.94
	c3.24,0,5.76,0.72,7.5,1.44l2.1-8.52c-1.68-0.9-5.46-1.8-10.08-1.8c-12.06,0-22.5,7.26-22.5,21.54c0,10.8,6.66,20.22,21.78,20.22
	c1.58,0,3.03-0.1,4.35-0.26L213.83,41.32z"/>
<path class="st1" d="M265.27,25.79c-5.1-1.86-7.26-2.7-7.26-4.74c0-1.8,1.8-3,5.1-3c4.02,0,7.02,1.14,8.76,1.92l2.28-8.64
	c-2.64-1.2-6.12-2.1-10.92-2.1c-10.2,0-16.26,5.52-16.26,12.66c0,6,4.56,9.78,11.4,12.18c4.56,1.56,6.36,2.7,6.36,4.68
	c0,2.04-1.8,3.3-5.52,3.3c-3.01,0-5.95-0.69-8.27-1.55l2.92,9.8l0,0c1.91,0.38,2.53,0.63,4.69,0.63c11.82,0,17.22-5.94,17.22-12.9
	C275.77,32.39,272.53,28.49,265.27,25.79z"/>
</svg>
